<svg width="48" height="49" viewBox="0 0 48 49" fill="none" xmlns="http://www.w3.org/2000/svg">
<rect width="48" height="49" fill="#6A4646"/>
<rect width="102" height="71.4872" transform="translate(-27 -11)" fill="white"/>
<g clip-path="url(#clip0_0_1)">
<path d="M4.05127 26.0873C4.05127 26.5844 4.16041 26.966 4.303 27.1969C4.48993 27.4993 4.76882 27.6275 5.05325 27.6275C5.4199 27.6275 5.75538 27.5365 6.40185 26.6423C6.91981 25.9256 7.53015 24.9197 7.94073 24.289L8.63607 23.2206C9.11916 22.4785 9.67829 21.6537 10.3193 21.0946C10.8428 20.6381 11.4074 20.3846 11.9755 20.3846C12.9295 20.3846 13.8382 20.9374 14.5335 21.9742C15.2946 23.1097 15.664 24.5398 15.664 26.0158C15.664 26.8932 15.4911 27.5378 15.1967 28.0471C14.9124 28.5397 14.3583 29.0318 13.4261 29.0318V27.6275C14.2243 27.6275 14.4234 26.894 14.4234 26.0547C14.4234 24.8585 14.1446 23.5312 13.5302 22.5827C13.0943 21.9099 12.5293 21.4988 11.9077 21.4988C11.2354 21.4988 10.6943 22.0059 10.0863 22.91C9.76303 23.3903 9.43117 23.9757 9.05856 24.6362L8.64839 25.3629C7.82438 26.8239 7.61565 27.1566 7.20373 27.7058C6.48165 28.6674 5.86502 29.0319 5.05325 29.0319C4.09025 29.0319 3.48133 28.6149 3.10428 27.9865C2.79622 27.4744 2.64508 26.8026 2.64508 26.0371L4.05127 26.0873Z" fill="#0081FB"/>
<path d="M3.75381 22.0733C4.39844 21.0796 5.32891 20.3846 6.39594 20.3846C7.01391 20.3846 7.62827 20.5676 8.2698 21.0913C8.97151 21.6641 9.71949 22.6071 10.6526 24.1614L10.987 24.7191C11.7948 26.0646 12.2543 26.7569 12.5232 27.0833C12.8691 27.5025 13.1114 27.6275 13.426 27.6275C14.2242 27.6275 14.4233 26.894 14.4233 26.0547L15.6639 26.0158C15.6639 26.8932 15.4909 27.5378 15.1966 28.0471C14.9123 28.5397 14.3582 29.0318 13.426 29.0318C12.8465 29.0318 12.3331 28.906 11.7654 28.3705C11.329 27.9594 10.8187 27.2291 10.4261 26.5726L9.25861 24.6222C8.67267 23.6434 8.13534 22.9136 7.82434 22.5831C7.48971 22.2277 7.05968 21.7985 6.37331 21.7985C5.81779 21.7985 5.34601 22.1883 4.95128 22.7846L3.75381 22.0733Z" fill="url(#paint0_linear_0_1)"/>
<path d="M6.37335 21.7985C5.81783 21.7985 5.34605 22.1883 4.95131 22.7846C4.39303 23.627 4.05127 24.8821 4.05127 26.0873C4.05127 26.5844 4.16041 26.966 4.303 27.1969L3.10411 27.9865C2.7963 27.4744 2.64508 26.8026 2.64508 26.0371C2.64508 24.6449 3.02716 23.1938 3.75385 22.0733C4.39848 21.0796 5.32895 20.3846 6.39598 20.3846L6.37335 21.7985Z" fill="url(#paint1_linear_0_1)"/>
<path d="M18.3975 20.6581H20.0241L22.7899 25.6617L25.5562 20.6581H27.1474V28.8798H25.8205V22.5785L23.3947 26.942H22.1498L19.7245 22.5785V28.8798H18.3975L18.3975 20.6581ZM31.3053 23.7236C30.3537 23.7236 29.7805 24.4397 29.6434 25.3267H32.8732C32.8066 24.413 32.2796 23.7236 31.3053 23.7236ZM28.3278 25.8318C28.3278 23.9657 29.5338 22.6075 31.3284 22.6075C33.0937 22.6075 34.1475 23.9484 34.1475 25.9314V26.2959H29.6434C29.8031 27.2607 30.4433 27.9108 31.4756 27.9108C32.2991 27.9108 32.8138 27.6595 33.3019 27.2L34.0069 28.0634C33.3426 28.6741 32.4978 29.0263 31.4284 29.0263C29.4858 29.0263 28.3277 27.6097 28.3277 25.8318M35.7566 23.8411H34.5351V22.7547H35.7567V20.9578H37.0369V22.7547H38.8927V23.8412H37.0369V26.5953C37.0369 27.5356 37.3375 27.8698 38.0764 27.8698C38.4137 27.8698 38.607 27.8407 38.8927 27.7932V28.868C38.5368 28.9685 38.1973 29.0147 37.8297 29.0147C36.4475 29.0147 35.7567 28.2595 35.7567 26.7479L35.7566 23.8411ZM44.2837 24.8979C44.0266 24.2486 43.453 23.7706 42.61 23.7706C41.5144 23.7706 40.8132 24.5479 40.8132 25.8142C40.8132 27.0488 41.4587 27.8637 42.5575 27.8637C43.4213 27.8637 44.0379 27.3612 44.2837 26.7359V24.8979ZM45.5641 28.8796H44.3073V28.0222C43.9561 28.527 43.3167 29.0265 42.2813 29.0265C40.6162 29.0265 39.5033 27.6324 39.5033 25.8142C39.5033 23.9789 40.6429 22.6075 42.352 22.6075C43.1968 22.6075 43.8596 22.9454 44.3073 23.5415V22.7547H45.5642L45.5641 28.8796Z" fill="#192830"/>
</g>
<defs>
<linearGradient id="paint0_linear_0_1" x1="169.042" y1="504.057" x2="1064.39" y2="549.278" gradientUnits="userSpaceOnUse">
<stop stop-color="#0064E1"/>
<stop offset="0.4" stop-color="#0064E1"/>
<stop offset="0.83" stop-color="#0073EE"/>
<stop offset="1" stop-color="#0082FB"/>
</linearGradient>
<linearGradient id="paint1_linear_0_1" x1="206.375" y1="649.684" x2="206.375" y2="319.192" gradientUnits="userSpaceOnUse">
<stop stop-color="#0082FB"/>
<stop offset="1" stop-color="#0064E0"/>
</linearGradient>
<clipPath id="clip0_0_1">
<rect width="42.9272" height="8.71795" fill="white" transform="translate(2.64102 20.3846)"/>
</clipPath>
</defs>
</svg>
